<svg width="18" height="18" viewBox="0 0 18 18" fill="none" xmlns="http://www.w3.org/2000/svg">
<path d="M8.99984 0.666656C4.40817 0.666656 0.666504 4.40832 0.666504 8.99999C0.666504 13.5917 4.40817 17.3333 8.99984 17.3333C13.5915 17.3333 17.3332 13.5917 17.3332 8.99999C17.3332 4.40832 13.5915 0.666656 8.99984 0.666656ZM11.7998 10.9167C12.0415 11.1583 12.0415 11.5583 11.7998 11.8C11.6748 11.925 11.5165 11.9833 11.3582 11.9833C11.1998 11.9833 11.0415 11.925 10.9165 11.8L8.99984 9.88332L7.08317 11.8C6.95817 11.925 6.79984 11.9833 6.6415 11.9833C6.48317 11.9833 6.32484 11.925 6.19984 11.8C5.95817 11.5583 5.95817 11.1583 6.19984 10.9167L8.1165 8.99999L6.19984 7.08332C5.95817 6.84166 5.95817 6.44166 6.19984 6.19999C6.4415 5.95832 6.8415 5.95832 7.08317 6.19999L8.99984 8.11666L10.9165 6.19999C11.1582 5.95832 11.5582 5.95832 11.7998 6.19999C12.0415 6.44166 12.0415 6.84166 11.7998 7.08332L9.88317 8.99999L11.7998 10.9167Z" fill="#727272"/>
</svg>
