<svg width="19" height="16" viewBox="0 0 19 16" fill="none" xmlns="http://www.w3.org/2000/svg">
<path fill-rule="evenodd" clip-rule="evenodd" d="M2.63342 0.5C1.25271 0.5 0.133423 1.61929 0.133423 3V13C0.133423 14.3807 1.25271 15.5 2.63342 15.5H15.9668C17.3475 15.5 18.4668 14.3807 18.4668 13V3C18.4668 1.61929 17.3475 0.5 15.9668 0.5H2.63342ZM4.8336 4.0265C4.48003 3.73187 3.95456 3.77964 3.65993 4.1332C3.36529 4.48676 3.41306 5.01224 3.76662 5.30687L7.69965 8.58439C8.62677 9.35699 9.97346 9.35699 10.9006 8.58439L14.8336 5.30687C15.1872 5.01224 15.2349 4.48676 14.9403 4.1332C14.6457 3.77964 14.1202 3.73187 13.7666 4.0265L9.8336 7.30402C9.52456 7.56156 9.07566 7.56156 8.76662 7.30403L4.8336 4.0265Z" fill="#868AA5"/>
</svg>
