<svg width="18" height="18" viewBox="0 0 18 18" fill="none" xmlns="http://www.w3.org/2000/svg">
<path d="M6.63301 8.68335C6.60801 8.68335 6.59134 8.68335 6.56634 8.68335C6.52468 8.67502 6.46634 8.67502 6.41634 8.68335C3.99967 8.60835 2.17467 6.70835 2.17467 4.36669C2.17467 1.98335 4.11634 0.041687 6.49968 0.041687C8.88301 0.041687 10.8247 1.98335 10.8247 4.36669C10.8163 6.70835 8.98301 8.60835 6.65801 8.68335C6.64967 8.68335 6.64134 8.68335 6.63301 8.68335ZM6.49968 1.29169C4.80801 1.29169 3.42467 2.67502 3.42467 4.36669C3.42467 6.03335 4.72467 7.37502 6.38301 7.43335C6.43301 7.42502 6.54134 7.42502 6.64968 7.43335C8.28301 7.35835 9.56634 6.01669 9.57467 4.36669C9.57467 2.67502 8.19134 1.29169 6.49968 1.29169Z" fill="#7E92A2"/>
<path d="M12.783 8.79169C12.758 8.79169 12.733 8.79169 12.708 8.78335C12.3663 8.81669 12.0163 8.57502 11.983 8.23335C11.9497 7.89169 12.158 7.58335 12.4997 7.54169C12.5997 7.53335 12.708 7.53335 12.7997 7.53335C14.0163 7.46669 14.9663 6.46669 14.9663 5.24169C14.9663 3.97502 13.9413 2.95002 12.6747 2.95002C12.333 2.95835 12.0497 2.67502 12.0497 2.33335C12.0497 1.99169 12.333 1.70835 12.6747 1.70835C14.6247 1.70835 16.2163 3.30002 16.2163 5.25002C16.2163 7.16669 14.7163 8.71669 12.808 8.79169C12.7997 8.79169 12.7913 8.79169 12.783 8.79169Z" fill="#7E92A2"/>
<path d="M6.64134 17.7917C5.00801 17.7917 3.36634 17.375 2.12467 16.5417C0.966341 15.775 0.333008 14.725 0.333008 13.5834C0.333008 12.4417 0.966341 11.3834 2.12467 10.6084C4.62468 8.95002 8.67468 8.95002 11.158 10.6084C12.308 11.375 12.9497 12.425 12.9497 13.5667C12.9497 14.7084 12.3163 15.7667 11.158 16.5417C9.90801 17.375 8.27468 17.7917 6.64134 17.7917ZM2.81634 11.6584C2.01634 12.1917 1.58301 12.875 1.58301 13.5917C1.58301 14.3 2.02467 14.9834 2.81634 15.5084C4.89134 16.9 8.39134 16.9 10.4663 15.5084C11.2663 14.975 11.6997 14.2917 11.6997 13.575C11.6997 12.8667 11.258 12.1834 10.4663 11.6584C8.39134 10.275 4.89134 10.275 2.81634 11.6584Z" fill="#7E92A2"/>
<path d="M14.283 16.2917C13.9913 16.2917 13.733 16.0917 13.6747 15.7917C13.608 15.45 13.8247 15.125 14.158 15.05C14.683 14.9417 15.1663 14.7334 15.5413 14.4417C16.0163 14.0834 16.2747 13.6334 16.2747 13.1584C16.2747 12.6834 16.0163 12.2334 15.5497 11.8834C15.183 11.6 14.7247 11.4 14.183 11.275C13.8497 11.2 13.633 10.8667 13.708 10.525C13.783 10.1917 14.1163 9.97502 14.458 10.05C15.1747 10.2084 15.7997 10.4917 16.308 10.8834C17.083 11.4667 17.5247 12.2917 17.5247 13.1584C17.5247 14.025 17.0747 14.85 16.2997 15.4417C15.783 15.8417 15.133 16.1334 14.4163 16.275C14.3663 16.2917 14.3247 16.2917 14.283 16.2917Z" fill="#7E92A2"/>
</svg>
